# xmcd CD database file
#
# Track frame offsets:
#	150
#	11537
#	32508
#	55793
#	76841
#	96495
#	118290
#	136062
#	152005
#	168665
#	188068
#	208265
#	225519
#
# Disc length: 3164 seconds
#
# Revision: 1
# Processed by: cddbd v1.5.1PL0 Copyright (c) Steve Scherf et al.
# Submitted via: CDex 1.51
#
DISCID=a40c5a0d
DTITLE=Andy "Too Hard" Williams - Left Hand Soul
DYEAR=1997
DGENRE=Blues
TTITLE0=I just can't get it together
TTITLE1=Left hand soul
TTITLE2=Turning Point
TTITLE3=Play the blues for you
TTITLE4=Cleo's back
TTITLE5=Since I fell for you
TTITLE6=Rock Me
TTITLE7=Sweet home Chicago
TTITLE8=Down Home Blues
TTITLE9=Knock on wood
TTITLE10=Drivin' wheel
TTITLE11=Reconsider
TTITLE12=Happiness and peace of mind
EXTD=YEAR: 1997
EXTT0=
EXTT1=
EXTT2=
EXTT3=
EXTT4=
EXTT5=
EXTT6=
EXTT7=
EXTT8=
EXTT9=
EXTT10=
EXTT11=
EXTT12=
PLAYORDER=
